Coordinates
version=1
nRows=65
nColumns=12
inDegrees=yes

Units are S.I. units (second, meters, Newtons, ...)
Angles are in degrees

endheader
time	SC_y	SC_z	SC_x	AC_y	AC_z	AC_x	GH_y	GH_z	GH_yy	EL_x	PS_y
       0.0              -42.84          10.34          16.54          48.88         -15.86          5.999          151.1          6.164          146.1          89.38          113.1
   0.04062              -42.83          10.33          16.55          48.88         -15.86          5.997          151.1          6.171          146.0          89.36          113.1
   0.08124              -42.83          10.33          16.56          48.87         -15.86          5.995          151.1          6.178          146.0          89.35          113.1
    0.1219              -42.83          10.33          16.56          48.87         -15.86          5.993          151.0          6.186          146.0          89.34          113.1
    0.1625              -42.82          10.33          16.57          48.87         -15.85          5.991          151.0          6.195          145.9          89.33          113.1
    0.2031              -42.82          10.32          16.58          48.86         -15.85          5.989          151.0          6.204          145.9          89.31          113.1
    0.2437              -42.81          10.32          16.59          48.86         -15.85          5.986          151.0          6.213          145.8           89.3          113.1
    0.2843               -42.8          10.32           16.6          48.86         -15.85          5.983          151.0          6.223          145.8          89.28          113.1
     0.325               -42.8          10.32          16.61          48.85         -15.85           5.98          150.9          6.234          145.7          89.26          113.0
    0.3656              -42.79          10.31          16.62          48.85         -15.85          5.977          150.9          6.246          145.6          89.24          113.0
    0.4062              -42.79          10.31          16.63          48.84         -15.85          5.974          150.9          6.259          145.6          89.22          113.0
    0.4468              -42.78           10.3          16.64          48.84         -15.85           5.97          150.9          6.273          145.5           89.2          113.0
    0.4875              -42.77           10.3          16.65          48.83         -15.85          5.966          150.8          6.287          145.4          89.18          113.0
    0.5281              -42.76           10.3          16.67          48.83         -15.85          5.962          150.8          6.303          145.3          89.15          113.0
    0.5687              -42.75          10.29          16.68          48.82         -15.85          5.957          150.8           6.32          145.2          89.13          113.0
    0.6093              -42.74          10.29           16.7          48.81         -15.85          5.952          150.7          6.339          145.1           89.1          113.0
    0.6499              -42.73          10.28          16.72           48.8         -15.85          5.947          150.7          6.359          145.0          89.06          112.9
    0.6906              -42.72          10.27          16.74           48.8         -15.85          5.941          150.6          6.381          144.9          89.03          112.9
    0.7312               -42.7          10.27          16.76          48.79         -15.85          5.935          150.6          6.405          144.8          88.99          112.9
    0.7718              -42.69          10.26          16.78          48.78         -15.85          5.928          150.5          6.432          144.6          88.95          112.9
    0.8124              -42.67          10.25          16.81          48.77         -15.85           5.92          150.5          6.461          144.5           88.9          112.9
     0.853              -42.66          10.24          16.84          48.75         -15.85          5.911          150.4          6.493          144.3          88.85          112.8
    0.8937              -42.64          10.23          16.87          48.74         -15.85          5.902          150.3          6.528          144.1           88.8          112.8
    0.9343              -42.61          10.22           16.9          48.72         -15.84          5.892          150.3          6.567          143.9          88.73          112.8
    0.9749              -42.59          10.21          16.94          48.71         -15.84           5.88          150.2           6.61          143.7          88.66          112.7
     1.016              -42.56          10.19          16.99          48.69         -15.84          5.867          150.1          6.659          143.4          88.59          112.7
     1.056              -42.53          10.18          17.04          48.67         -15.84          5.853          150.0          6.713          143.1           88.5          112.7
     1.097               -42.5          10.16          17.09          48.65         -15.84          5.836          149.8          6.774          142.8           88.4          112.6
     1.137              -42.46          10.14          17.15          48.62         -15.84          5.818          149.7          6.843          142.4          88.29          112.6
     1.178              -42.42          10.12          17.22          48.59         -15.83          5.797          149.5          6.921          142.0          88.17          112.5
     1.219              -42.37          10.09           17.3          48.55         -15.83          5.773          149.4           7.01          141.6          88.03          112.4
     1.259              -42.31          10.06          17.39          48.52         -15.83          5.746          149.2          7.113          141.0          87.87          112.3
       1.3              -42.24          10.03           17.5          48.47         -15.83          5.714          148.9          7.231          140.4          87.68          112.2
      1.34              -42.17          9.992          17.62          48.42         -15.82          5.678          148.6          7.368          139.6          87.46          112.1
     1.381              -42.08          9.946          17.77          48.36         -15.82          5.635          148.3          7.529          138.8           87.2          112.0
     1.422              -41.97          9.892          17.94          48.28         -15.81          5.584          147.9          7.719          137.8           86.9          111.8
     1.462              -41.85          9.828          18.14           48.2          -15.8          5.524          147.5          7.944          136.6          86.54          111.7
     1.503               -41.7          9.751          18.38          48.09          -15.8          5.452          146.9          8.214          135.1          86.11          111.4
     1.544              -41.51          9.658          18.68          47.97         -15.79          5.365          146.2          8.541          133.4          85.59          111.2
     1.584              -41.29          9.544          19.03          47.81         -15.78          5.258          145.4           8.94          131.2          84.96          110.9
     1.625              -41.02          9.404          19.48          47.63         -15.76          5.127          144.4          9.433          128.6          84.17          110.5
     1.665              -40.68          9.229          20.03          47.39         -15.74          4.963          143.2          10.05          125.3           83.2          110.0
     1.706              -40.25          9.009          20.72          47.09         -15.72          4.756          141.6          10.82          121.2          81.96          109.3
     1.747               -39.7          8.728          21.61          46.72         -15.69          4.494          139.6           11.8          115.9           80.4          108.5
     1.787               -39.0           8.37          22.74          46.23         -15.66          4.157          137.0          13.06          109.2          78.39          107.5
     1.828               -38.1          7.909          24.19          45.61         -15.61          3.726          133.7          14.68          100.6          75.82          106.2
     1.869              -36.95          7.321          26.04          44.82         -15.55          3.175          129.5          16.74          89.52          72.54          104.6
     1.909               -35.5          6.582          28.37          43.83         -15.48          2.482          124.2          19.34          75.65          68.41          102.5
      1.95              -33.74          5.681          31.21          42.61         -15.39          1.638          117.7           22.5          58.74          63.38          99.91
      1.99               -31.7          4.636           34.5          41.21         -15.28         0.6595          110.3          26.17          39.14          57.54          96.95
     2.031              -29.49          3.505          38.06          39.69         -15.17           -0.4          102.1          30.14          17.92          51.22          93.75
     2.072              -27.28          2.375          41.62          38.16         -15.05          -1.46          94.05          34.11         -3.301          44.91          90.54
     2.112              -25.24           1.33          44.91          36.76         -14.95         -2.438          86.56          37.77          -22.9          39.07          87.58
     2.153              -23.48         0.4292          47.75          35.55         -14.86         -3.282          80.11          40.94         -39.81          34.04          85.03
     2.194              -22.03        -0.3102          50.08          34.55         -14.78         -3.975          74.81          43.53         -53.68          29.91          82.93
     2.234              -20.88        -0.8983          51.93          33.76         -14.72         -4.526          70.59          45.59         -64.71          26.63          81.27
     2.275              -19.98         -1.359          53.38          33.14         -14.68         -4.957           67.3          47.21         -73.35          24.05          79.96
     2.315              -19.28         -1.717          54.51          32.66         -14.64         -5.294          64.73          48.47         -80.08          22.05          78.94
     2.356              -18.73         -1.998           55.4          32.28         -14.61         -5.556          62.72          49.45         -85.34          20.48          78.15
     2.397               -18.3         -2.218          56.09          31.98         -14.59         -5.763          61.14          50.23         -89.48          19.25          77.52
     2.437              -17.96         -2.393          56.64          31.75         -14.57         -5.927          59.88          50.84         -92.76          18.28          77.03
     2.478              -17.69         -2.533          57.08          31.56         -14.56         -6.058          58.88          51.33          -95.4          17.49          76.63
     2.519              -17.46         -2.647          57.44           31.4         -14.55         -6.165          58.06          51.73         -97.53          16.86          76.31
     2.559              -17.28          -2.74          57.74          31.28         -14.54         -6.252           57.4          52.06         -99.28          16.34          76.04
       2.6              -17.13         -2.817          57.98          31.18         -14.53         -6.324          56.84          52.33         -100.7          15.91          75.83
